<svg width="28" height="28" viewBox="0 0 28 28" fill="none" xmlns="http://www.w3.org/2000/svg">
<rect width="28" height="28" rx="2" fill="#DEDEDE"/>
<path fill-rule="evenodd" clip-rule="evenodd" d="M14.1744 20.5329H10.0547C9.46017 20.5329 9.0355 20.4041 8.78164 20.1455C8.52684 19.887 8.3999 19.4754 8.3999 18.9107V9.08832C8.3999 8.51245 8.53057 8.09712 8.79097 7.84512C9.05137 7.59312 9.4723 7.46619 10.0547 7.46619H14.4227C15.0667 7.46619 15.6248 7.50445 16.0962 7.58192C16.5684 7.65939 16.9922 7.80779 17.3655 8.02805C17.6838 8.21192 17.9666 8.44525 18.2111 8.72805C18.7 9.2863 18.9682 10.0039 18.9652 10.7459C18.9652 12.0535 18.2914 13.0102 16.9427 13.6159C18.7132 14.1629 19.5999 15.2269 19.5999 16.8089C19.6163 18.2331 18.7693 19.5257 17.457 20.0793C17.0021 20.2568 16.5262 20.375 16.0411 20.4311C15.5082 20.4993 14.8856 20.5338 14.1744 20.5338V20.5329ZM13.9719 14.7303H11.1999V18.5448H14.0643C15.9095 18.5448 16.8316 17.9008 16.8316 16.611C16.8316 15.9511 16.5927 15.4723 16.1148 15.1764C15.637 14.8787 14.923 14.7303 13.9719 14.7303ZM11.1999 9.45419V12.8319H13.6322C14.3126 12.8319 14.838 12.7694 15.2095 12.6453C15.5738 12.5252 15.8779 12.2695 16.0588 11.9313C16.2128 11.6821 16.2894 11.403 16.2894 11.0941C16.2894 10.4342 16.0467 9.99646 15.5632 9.77899C15.0788 9.56246 14.3406 9.45419 13.3466 9.45419H11.1999Z" fill="black"/>
<mask id="mask0_12_1473" style="mask-type:luminance" maskUnits="userSpaceOnUse" x="8" y="7" width="12" height="14">
<path fill-rule="evenodd" clip-rule="evenodd" d="M14.1744 20.5329H10.0547C9.46017 20.5329 9.0355 20.4041 8.78164 20.1455C8.52684 19.887 8.3999 19.4754 8.3999 18.9107V9.08832C8.3999 8.51245 8.53057 8.09712 8.79097 7.84512C9.05137 7.59312 9.4723 7.46619 10.0547 7.46619H14.4227C15.0667 7.46619 15.6248 7.50445 16.0962 7.58192C16.5684 7.65939 16.9922 7.80779 17.3655 8.02805C17.6838 8.21192 17.9666 8.44525 18.2111 8.72805C18.7 9.2863 18.9682 10.0039 18.9652 10.7459C18.9652 12.0535 18.2914 13.0102 16.9427 13.6159C18.7132 14.1629 19.5999 15.2269 19.5999 16.8089C19.6163 18.2331 18.7693 19.5257 17.457 20.0793C17.0021 20.2568 16.5262 20.375 16.0411 20.4311C15.5082 20.4993 14.8856 20.5338 14.1744 20.5338V20.5329ZM13.9719 14.7303H11.1999V18.5448H14.0643C15.9095 18.5448 16.8316 17.9008 16.8316 16.611C16.8316 15.9511 16.5927 15.4723 16.1148 15.1764C15.637 14.8787 14.923 14.7303 13.9719 14.7303ZM11.1999 9.45419V12.8319H13.6322C14.3126 12.8319 14.838 12.7694 15.2095 12.6453C15.5738 12.5252 15.8779 12.2695 16.0588 11.9313C16.2128 11.6821 16.2894 11.403 16.2894 11.0941C16.2894 10.4342 16.0467 9.99646 15.5632 9.77899C15.0788 9.56246 14.3406 9.45419 13.3466 9.45419H11.1999Z" fill="white"/>
</mask>
<g mask="url(#mask0_12_1473)">
<rect x="4.6665" y="4.66663" width="18.6667" height="18.6667" fill="#333333"/>
</g>
</svg>
