<svg width="28" height="28" viewBox="0 0 28 28" fill="none" xmlns="http://www.w3.org/2000/svg">
<path fill-rule="evenodd" clip-rule="evenodd" d="M13.6137 18.3241L13.6333 18.3279C13.5997 18.6405 13.7219 18.9392 14.0001 19.2257C14.0766 19.3032 14.1615 19.3657 14.2558 19.4133H15.6315C15.9408 19.4133 16.1915 19.6641 16.1915 19.9733C16.1915 20.2826 15.9408 20.5333 15.6315 20.5333H9.61713C9.30785 20.5333 9.05713 20.2826 9.05713 19.9733C9.05713 19.6641 9.30785 19.4133 9.61713 19.4133H10.6905C11.1329 19.348 11.4455 19.2435 11.6285 19.1016C11.775 18.9877 11.9001 18.8029 12.0055 18.5444L14.2605 9.63107C14.2878 9.3492 14.1922 9.06924 13.9982 8.86294C13.8849 8.73906 13.7434 8.6443 13.5857 8.58667H12.2734C11.9641 8.58667 11.7134 8.33595 11.7134 8.02667C11.7134 7.7174 11.9641 7.46667 12.2734 7.46667H18.2869C18.5961 7.46667 18.8469 7.7174 18.8469 8.02667C18.8469 8.33595 18.5961 8.58667 18.2869 8.58667H17.1715C16.8206 8.63894 16.5649 8.73134 16.4034 8.86294C16.2027 9.02627 16.0086 9.27267 15.8219 9.60027L13.6137 18.3241Z" fill="#333333"/>
<mask id="mask0_12_1487" style="mask-type:luminance" maskUnits="userSpaceOnUse" x="9" y="7" width="10" height="14">
<path fill-rule="evenodd" clip-rule="evenodd" d="M13.6137 18.3241L13.6333 18.3279C13.5997 18.6405 13.7219 18.9392 14.0001 19.2257C14.0766 19.3032 14.1615 19.3657 14.2558 19.4133H15.6315C15.9408 19.4133 16.1915 19.6641 16.1915 19.9733C16.1915 20.2826 15.9408 20.5333 15.6315 20.5333H9.61713C9.30785 20.5333 9.05713 20.2826 9.05713 19.9733C9.05713 19.6641 9.30785 19.4133 9.61713 19.4133H10.6905C11.1329 19.348 11.4455 19.2435 11.6285 19.1016C11.775 18.9877 11.9001 18.8029 12.0055 18.5444L14.2605 9.63107C14.2878 9.3492 14.1922 9.06924 13.9982 8.86294C13.8849 8.73906 13.7434 8.6443 13.5857 8.58667H12.2734C11.9641 8.58667 11.7134 8.33595 11.7134 8.02667C11.7134 7.7174 11.9641 7.46667 12.2734 7.46667H18.2869C18.5961 7.46667 18.8469 7.7174 18.8469 8.02667C18.8469 8.33595 18.5961 8.58667 18.2869 8.58667H17.1715C16.8206 8.63894 16.5649 8.73134 16.4034 8.86294C16.2027 9.02627 16.0086 9.27267 15.8219 9.60027L13.6137 18.3241Z" fill="white"/>
</mask>
<g mask="url(#mask0_12_1487)">
<rect x="4.6665" y="4.66663" width="18.6667" height="18.6667" fill="#333333"/>
</g>
</svg>
