<svg width="48" height="49" viewBox="0 0 48 49" fill="none" xmlns="http://www.w3.org/2000/svg">
<path d="M38.5081 7.42847H9.29285C7.89571 7.42847 6.7619 8.53561 6.7619 9.89894V39.2404C6.7619 40.6056 7.89571 41.7142 9.29285 41.7142H38.5081C39.9062 41.7142 41.0476 40.6056 41.0476 39.2404V9.89894C41.0476 8.53561 39.9062 7.42847 38.5081 7.42847ZM16.9305 36.6447H11.8429V20.2832H16.9305V36.6447ZM14.3867 18.0461C13.9994 18.0461 13.616 17.9698 13.2582 17.8215C12.9005 17.6733 12.5754 17.456 12.3017 17.1821C12.028 16.9082 11.8109 16.583 11.6629 16.2252C11.5149 15.8673 11.4388 15.4838 11.439 15.0966C11.439 14.3149 11.7496 13.5652 12.3023 13.0124C12.8551 12.4597 13.6047 12.1492 14.3864 12.1492C15.1681 12.1492 15.9178 12.4597 16.4705 13.0124C17.0233 13.5652 17.3338 14.3149 17.3338 15.0966C17.3338 15.8784 17.0234 16.6283 16.4708 17.1813C15.9181 17.7344 15.1685 18.0455 14.3867 18.0461ZM35.9762 36.6447H30.8967V28.6885C30.8967 26.7904 30.8595 24.3499 28.2533 24.3499C25.6067 24.3499 25.2033 26.417 25.2033 28.5508V36.6451H20.12V20.2832H24.9986V22.5175H25.0681C25.7471 21.2318 27.4062 19.8751 29.8805 19.8751C35.0262 19.8751 35.9767 23.2628 35.9767 27.6699V36.6447H35.9762Z" fill="white"/>
</svg>
