<svg width="49" height="49" viewBox="0 0 49 49" fill="none" xmlns="http://www.w3.org/2000/svg">
<path d="M40.8495 28.5211C41.1138 27.3111 41.2548 26.0564 41.2548 24.7673C41.2548 15.1087 33.4252 7.27827 23.7657 7.27827C22.7467 7.27827 21.7486 7.36684 20.7757 7.53493C19.1611 6.51534 17.2901 5.97534 15.3805 5.97779C9.78 5.97779 5.2381 10.5178 5.2381 16.1206C5.2381 17.9921 5.74715 19.744 6.63286 21.2483C6.39697 22.4066 6.27827 23.5857 6.27857 24.7678C6.27857 34.4259 14.1071 42.2559 23.7657 42.2559C24.8605 42.2559 25.93 42.1535 26.97 41.963C28.4436 42.7541 30.0904 43.1673 31.7629 43.1654C37.3643 43.1654 41.9052 38.6268 41.9052 33.024C41.9069 31.4615 41.5455 29.92 40.8495 28.5211ZM32.7367 33.1259C31.9267 34.2692 30.731 35.1768 29.1833 35.8202C27.6486 36.4592 25.8114 36.7826 23.7171 36.7826C21.2067 36.7826 19.1005 36.3387 17.4567 35.4673C16.2819 34.8311 15.3129 33.973 14.5776 32.9121C13.8343 31.8411 13.4567 30.7773 13.4567 29.7521C13.4567 29.1126 13.7033 28.5568 14.1871 28.1021C14.6662 27.6511 15.2795 27.4216 16.0124 27.4216C16.6129 27.4216 17.1319 27.6026 17.5524 27.9578C17.9548 28.2997 18.3005 28.8035 18.5767 29.4568C18.8871 30.1654 19.2257 30.7654 19.5824 31.2378C19.9243 31.6897 20.419 32.073 21.0495 32.3706C21.6824 32.6711 22.5376 32.824 23.589 32.824C25.0348 32.824 26.221 32.5149 27.111 31.9049C27.9829 31.3102 28.4062 30.5968 28.4062 29.7226C28.4062 29.0326 28.1843 28.4892 27.7295 28.0645C27.2543 27.6197 26.6271 27.273 25.8648 27.0359C25.07 26.7878 23.9895 26.5206 22.6552 26.2406C20.841 25.8521 19.2995 25.3911 18.0719 24.8692C16.8181 24.3359 15.8067 23.5959 15.0681 22.6706C14.3176 21.7297 13.9367 20.5506 13.9367 19.1649C13.9367 17.844 14.3357 16.654 15.1243 15.6259C15.9067 14.6054 17.0491 13.813 18.5181 13.2692C19.9705 12.7316 21.6971 12.4611 23.6495 12.4611C25.2114 12.4611 26.5848 12.6416 27.7305 12.9968C28.8833 13.3578 29.8548 13.8402 30.6191 14.4383C31.3867 15.0392 31.96 15.6816 32.3176 16.3487C32.6819 17.023 32.8662 17.6949 32.8662 18.3445C32.8662 18.9692 32.6248 19.5359 32.1481 20.0316C31.6691 20.5292 31.0657 20.7811 30.3524 20.7811C29.7048 20.7811 29.1976 20.624 28.8462 20.313C28.5186 20.0235 28.1786 19.5721 27.8029 18.923C27.3662 18.0954 26.8395 17.4421 26.2338 16.9811C25.6457 16.5345 24.6629 16.3078 23.3143 16.3078C22.059 16.3078 21.0395 16.5587 20.2838 17.0554C19.5538 17.5335 19.2 18.0811 19.2 18.7321C19.2 19.1306 19.3138 19.463 19.5481 19.7492C19.7981 20.054 20.1471 20.3183 20.5914 20.5416C21.051 20.7721 21.5238 20.9564 21.9981 21.0868C22.4857 21.2226 23.2995 21.4226 24.419 21.6802C25.8329 21.9854 27.1343 22.3249 28.2838 22.693C29.4481 23.0659 30.4552 23.5259 31.2757 24.0602C32.1138 24.6045 32.7771 25.3059 33.249 26.1421C33.72 26.9826 33.9586 28.0173 33.9586 29.2216C33.9586 30.6626 33.5476 31.9759 32.7367 33.1259Z" fill="white"/>
</svg>
