<svg width="49" height="49" viewBox="0 0 49 49" fill="none" xmlns="http://www.w3.org/2000/svg">
<path d="M39.8695 7.42847H9.36858C8.86669 7.42847 8.38535 7.62784 8.03046 7.98273C7.67557 8.33762 7.4762 8.81896 7.4762 9.32085V39.8223C7.47632 40.3241 7.67575 40.8053 8.03063 41.1601C8.38551 41.5149 8.86677 41.7142 9.36858 41.7142H25.7891V28.437H21.321V23.2628H25.7891V19.4466C25.7891 15.018 28.4938 12.607 32.4443 12.607C34.3367 12.607 35.9629 12.7475 36.4371 12.8108V17.4389L33.6971 17.4404C31.5486 17.4404 31.1329 18.4613 31.1329 19.9594V23.2632H36.2567L35.5895 28.4375H31.1329V41.7142H39.87C40.3718 41.7141 40.853 41.5146 41.2078 41.1597C41.5626 40.8049 41.7619 40.3236 41.7619 39.8218V9.32085C41.7619 8.81896 41.5625 8.33762 41.2076 7.98273C40.8528 7.62784 40.3714 7.42847 39.8695 7.42847Z" fill="white"/>
</svg>
