<svg width="48" height="49" viewBox="0 0 48 49" fill="none" xmlns="http://www.w3.org/2000/svg">
<path d="M42.5238 13.2C41.1509 13.8082 39.6945 14.2072 38.2033 14.3838C39.774 13.444 40.9494 11.9651 41.5105 10.2228C40.0341 11.0993 38.4185 11.7165 36.7338 12.0476C36.0299 11.2969 35.1794 10.6987 34.2349 10.2901C33.2903 9.8815 32.272 9.67126 31.2429 9.67237C27.0886 9.67237 23.72 13.04 23.72 17.1952C23.72 17.7843 23.7867 18.359 23.9152 18.91C17.6629 18.5962 12.12 15.6009 8.40952 11.049C7.74051 12.1972 7.38896 13.5026 7.39095 14.8314C7.38996 16.07 7.69494 17.2896 8.27878 18.382C8.86263 19.4743 9.70725 20.4055 10.7376 21.0928C9.54319 21.0549 8.37509 20.7323 7.33047 20.1519C7.32952 20.1833 7.32952 20.2143 7.32952 20.2467C7.32952 23.8905 9.92238 26.9309 13.3633 27.6228C12.2554 27.9228 11.0937 27.9668 9.96619 27.7514C10.9233 30.7395 13.7014 32.9152 16.9933 32.9762C14.3285 35.0674 11.0379 36.2017 7.65047 36.1967C7.04333 36.1967 6.44476 36.1614 5.85571 36.0914C9.2954 38.3015 13.2986 39.4746 17.3871 39.4705C31.2243 39.4705 38.791 28.0081 38.791 18.0681C38.791 17.7424 38.7833 17.4171 38.769 17.0938C40.2426 16.0299 41.5142 14.7113 42.5238 13.2Z" fill="white"/>
</svg>
