<svg width="20" height="20" viewBox="0 0 20 20" fill="none" xmlns="http://www.w3.org/2000/svg">
<path fill-rule="evenodd" clip-rule="evenodd" d="M8.13319 6.03332C8.13319 6.41972 8.44679 6.73332 8.83319 6.73332H17.6999C18.0865 6.73332 18.3999 6.41992 18.3999 6.03332C18.3999 5.64673 18.0865 5.33333 17.6999 5.33333H8.83319C8.44659 5.33333 8.13319 5.64673 8.13319 6.03332ZM4.86653 3.46665V8.13331H3.46653V4.11998H2.53319V3.18665H4.86653V3.46665ZM1.92 17.3332L4.33734 14.2933H4.3252C4.46069 14.058 4.40777 13.7593 4.19965 13.5848C3.99153 13.4103 3.68821 13.4103 3.48009 13.5848C3.27197 13.7593 3.21905 14.058 3.35454 14.2933H1.88174C1.84729 13.605 2.1949 12.9537 2.78592 12.5992C3.37694 12.2447 4.1152 12.2447 4.70622 12.5992C5.29724 12.9537 5.64485 13.605 5.6104 14.2933H5.60947C5.56467 14.6713 5.46014 14.9784 5.29867 15.2155C5.13534 15.4525 4.748 15.8613 4.1376 16.44H5.6132V17.3733H1.87987L1.92 17.3332ZM8.13319 14.4333C8.13319 14.0467 8.44659 13.7333 8.83319 13.7333H17.6999C18.0865 13.7333 18.3999 14.0467 18.3999 14.4333C18.3999 14.8199 18.0865 15.1333 17.6999 15.1333H8.83319C8.44659 15.1333 8.13319 14.8199 8.13319 14.4333Z" fill="black"/>
<mask id="mask0_12_1527" style="mask-type:luminance" maskUnits="userSpaceOnUse" x="1" y="3" width="18" height="15">
<path fill-rule="evenodd" clip-rule="evenodd" d="M8.13319 6.03332C8.13319 6.41972 8.44679 6.73332 8.83319 6.73332H17.6999C18.0865 6.73332 18.3999 6.41992 18.3999 6.03332C18.3999 5.64673 18.0865 5.33333 17.6999 5.33333H8.83319C8.44659 5.33333 8.13319 5.64673 8.13319 6.03332ZM4.86653 3.46665V8.13331H3.46653V4.11998H2.53319V3.18665H4.86653V3.46665ZM1.92 17.3332L4.33734 14.2933H4.3252C4.46069 14.058 4.40777 13.7593 4.19965 13.5848C3.99153 13.4103 3.68821 13.4103 3.48009 13.5848C3.27197 13.7593 3.21905 14.058 3.35454 14.2933H1.88174C1.84729 13.605 2.1949 12.9537 2.78592 12.5992C3.37694 12.2447 4.1152 12.2447 4.70622 12.5992C5.29724 12.9537 5.64485 13.605 5.6104 14.2933H5.60947C5.56467 14.6713 5.46014 14.9784 5.29867 15.2155C5.13534 15.4525 4.748 15.8613 4.1376 16.44H5.6132V17.3733H1.87987L1.92 17.3332ZM8.13319 14.4333C8.13319 14.0467 8.44659 13.7333 8.83319 13.7333H17.6999C18.0865 13.7333 18.3999 14.0467 18.3999 14.4333C18.3999 14.8199 18.0865 15.1333 17.6999 15.1333H8.83319C8.44659 15.1333 8.13319 14.8199 8.13319 14.4333Z" fill="white"/>
</mask>
<g mask="url(#mask0_12_1527)">
<rect x="0.666504" y="0.666626" width="18.6667" height="18.6667" fill="#333333"/>
</g>
</svg>
