<svg width="20" height="20" viewBox="0 0 20 20" fill="none" xmlns="http://www.w3.org/2000/svg">
<path fill-rule="evenodd" clip-rule="evenodd" d="M11.0051 14.6666L11.9301 13.345C12.0734 13.1401 12.3153 13.0272 12.5644 13.049C12.8135 13.0707 13.0322 13.2237 13.1379 13.4503C13.2437 13.6769 13.2205 13.9428 13.0771 14.1477L12.0057 15.6783C11.9518 15.7554 11.8829 15.8208 11.8031 15.8706C10.1306 17.6199 7.43171 17.8864 5.44937 16.4981C3.46703 15.1098 2.79487 12.4823 3.867 10.3126C3.88567 10.2239 3.923 10.1362 3.979 10.0569L5.04953 8.52713C5.18919 8.31311 5.43439 8.19221 5.6892 8.21172C5.94401 8.23123 6.16794 8.38805 6.27339 8.62084C6.37884 8.85363 6.34905 9.12538 6.19567 9.3298L5.27073 10.6533L5.27633 10.6561C4.30981 12.2334 4.73769 14.2905 6.25302 15.3517C7.76835 16.4128 9.84777 16.1114 10.9995 14.6638L11.0051 14.6675V14.6666ZM16.1329 9.68726C16.1131 9.77918 16.075 9.86616 16.0209 9.943L14.9503 11.4727C14.8107 11.6867 14.5655 11.8077 14.3107 11.7881C14.0559 11.7686 13.8319 11.6118 13.7265 11.379C13.621 11.1462 13.6508 10.8745 13.8042 10.6701L14.6069 9.52206C15.6992 7.93866 15.3089 5.77054 13.733 4.66739C12.1572 3.56424 9.98644 3.93957 8.87248 5.5078L8.06981 6.65486C7.84816 6.97162 7.4117 7.04871 7.09494 6.82706C6.77819 6.60541 6.70109 6.16895 6.92274 5.8522L7.99421 4.32153C8.04808 4.24445 8.11697 4.17906 8.19674 4.12926C9.86923 2.38001 12.5682 2.11347 14.5505 3.50178C16.5329 4.8901 17.205 7.51755 16.1329 9.68726ZM11.8741 7.32408C12.0262 7.43059 12.1298 7.59322 12.162 7.77616C12.1942 7.95909 12.1524 8.14732 12.0458 8.29941L9.10112 12.5041C8.95774 12.709 8.71593 12.8218 8.46679 12.8001C8.21764 12.7784 7.99901 12.6254 7.89325 12.3988C7.78749 12.1721 7.81067 11.9063 7.95405 11.7014L10.8987 7.49581C11.0052 7.34364 11.1679 7.24004 11.3508 7.20783C11.5337 7.17562 11.722 7.21744 11.8741 7.32408Z" fill="black"/>
<mask id="mask0_12_1497" style="mask-type:luminance" maskUnits="userSpaceOnUse" x="3" y="2" width="14" height="16">
<path fill-rule="evenodd" clip-rule="evenodd" d="M11.0051 14.6666L11.9301 13.345C12.0734 13.1401 12.3153 13.0272 12.5644 13.049C12.8135 13.0707 13.0322 13.2237 13.1379 13.4503C13.2437 13.6769 13.2205 13.9428 13.0771 14.1477L12.0057 15.6783C11.9518 15.7554 11.8829 15.8208 11.8031 15.8706C10.1306 17.6199 7.43171 17.8864 5.44937 16.4981C3.46703 15.1098 2.79487 12.4823 3.867 10.3126C3.88567 10.2239 3.923 10.1362 3.979 10.0569L5.04953 8.52713C5.18919 8.31311 5.43439 8.19221 5.6892 8.21172C5.94401 8.23123 6.16794 8.38805 6.27339 8.62084C6.37884 8.85363 6.34905 9.12538 6.19567 9.3298L5.27073 10.6533L5.27633 10.6561C4.30981 12.2334 4.73769 14.2905 6.25302 15.3517C7.76835 16.4128 9.84777 16.1114 10.9995 14.6638L11.0051 14.6675V14.6666ZM16.1329 9.68726C16.1131 9.77918 16.075 9.86616 16.0209 9.943L14.9503 11.4727C14.8107 11.6867 14.5655 11.8077 14.3107 11.7881C14.0559 11.7686 13.8319 11.6118 13.7265 11.379C13.621 11.1462 13.6508 10.8745 13.8042 10.6701L14.6069 9.52206C15.6992 7.93866 15.3089 5.77054 13.733 4.66739C12.1572 3.56424 9.98644 3.93957 8.87248 5.5078L8.06981 6.65486C7.84816 6.97162 7.4117 7.04871 7.09494 6.82706C6.77819 6.60541 6.70109 6.16895 6.92274 5.8522L7.99421 4.32153C8.04808 4.24445 8.11697 4.17906 8.19674 4.12926C9.86923 2.38001 12.5682 2.11347 14.5505 3.50178C16.5329 4.8901 17.205 7.51755 16.1329 9.68726ZM11.8741 7.32408C12.0262 7.43059 12.1298 7.59322 12.162 7.77616C12.1942 7.95909 12.1524 8.14732 12.0458 8.29941L9.10112 12.5041C8.95774 12.709 8.71593 12.8218 8.46679 12.8001C8.21764 12.7784 7.99901 12.6254 7.89325 12.3988C7.78749 12.1721 7.81067 11.9063 7.95405 11.7014L10.8987 7.49581C11.0052 7.34364 11.1679 7.24004 11.3508 7.20783C11.5337 7.17562 11.722 7.21744 11.8741 7.32408Z" fill="white"/>
</mask>
<g mask="url(#mask0_12_1497)">
<rect x="0.666504" y="0.666626" width="18.6667" height="18.6667" fill="#333333"/>
</g>
</svg>
