<svg width="20" height="20" viewBox="0 0 20 20" fill="none" xmlns="http://www.w3.org/2000/svg">
<path fill-rule="evenodd" clip-rule="evenodd" d="M7.66641 5.56668C7.66641 5.95308 7.98001 6.26668 8.36641 6.26668H17.2331C17.6197 6.26668 17.9331 5.95328 17.9331 5.56668C17.9331 5.18008 17.6197 4.86668 17.2331 4.86668H8.36641C7.97981 4.86668 7.66641 5.18008 7.66641 5.56668ZM2.06641 5.56668C2.06641 4.66508 2.79161 3.93335 3.69974 3.93335C4.60134 3.93335 5.33307 4.65855 5.33307 5.56668C5.33307 6.46828 4.60787 7.20002 3.69974 7.20002C2.79814 7.20002 2.06641 6.47482 2.06641 5.56668ZM7.66641 13.9667C7.66641 14.3531 7.98001 14.6667 8.36641 14.6667H17.2331C17.6197 14.6667 17.9331 14.3533 17.9331 13.9667C17.9331 13.5801 17.6197 13.2667 17.2331 13.2667H8.36641C7.97981 13.2667 7.66641 13.5801 7.66641 13.9667ZM2.06641 13.9667C2.06641 13.0651 2.79161 12.3333 3.69974 12.3333C4.60134 12.3333 5.33307 13.0585 5.33307 13.9667C5.33307 14.8683 4.60787 15.6 3.69974 15.6C2.79814 15.6 2.06641 14.8748 2.06641 13.9667Z" fill="black"/>
<mask id="mask0_12_1511" style="mask-type:luminance" maskUnits="userSpaceOnUse" x="2" y="3" width="16" height="13">
<path fill-rule="evenodd" clip-rule="evenodd" d="M7.66641 5.56668C7.66641 5.95308 7.98001 6.26668 8.36641 6.26668H17.2331C17.6197 6.26668 17.9331 5.95328 17.9331 5.56668C17.9331 5.18008 17.6197 4.86668 17.2331 4.86668H8.36641C7.97981 4.86668 7.66641 5.18008 7.66641 5.56668ZM2.06641 5.56668C2.06641 4.66508 2.79161 3.93335 3.69974 3.93335C4.60134 3.93335 5.33307 4.65855 5.33307 5.56668C5.33307 6.46828 4.60787 7.20002 3.69974 7.20002C2.79814 7.20002 2.06641 6.47482 2.06641 5.56668ZM7.66641 13.9667C7.66641 14.3531 7.98001 14.6667 8.36641 14.6667H17.2331C17.6197 14.6667 17.9331 14.3533 17.9331 13.9667C17.9331 13.5801 17.6197 13.2667 17.2331 13.2667H8.36641C7.97981 13.2667 7.66641 13.5801 7.66641 13.9667ZM2.06641 13.9667C2.06641 13.0651 2.79161 12.3333 3.69974 12.3333C4.60134 12.3333 5.33307 13.0585 5.33307 13.9667C5.33307 14.8683 4.60787 15.6 3.69974 15.6C2.79814 15.6 2.06641 14.8748 2.06641 13.9667Z" fill="white"/>
</mask>
<g mask="url(#mask0_12_1511)">
<rect x="0.666504" y="0.666626" width="18.6667" height="18.6667" fill="#333333"/>
</g>
</svg>
