<svg width="49" height="49" viewBox="0 0 49 49" fill="none" xmlns="http://www.w3.org/2000/svg">
<path d="M36.2381 6.71436H12.4286C9.05556 6.71436 6.4762 9.29372 6.4762 12.6667V36.4763C6.4762 39.8493 9.05556 42.4286 12.4286 42.4286H36.2381C39.6111 42.4286 42.1905 39.8493 42.1905 36.4763V12.6667C42.1905 9.29372 39.6111 6.71436 36.2381 6.71436ZM24.3333 18.6191C27.7064 18.6191 30.2857 21.1985 30.2857 24.5715C30.2857 27.9445 27.7064 30.5239 24.3333 30.5239C20.9603 30.5239 18.381 27.9445 18.381 24.5715C18.381 21.1985 20.9603 18.6191 24.3333 18.6191ZM31.873 14.6509C31.873 13.262 33.0635 12.2699 34.254 12.2699C35.4445 12.2699 36.6349 13.4604 36.6349 14.6509C36.6349 15.8413 35.6429 17.0318 34.254 17.0318C32.8651 17.0318 31.873 16.0398 31.873 14.6509ZM36.2381 38.4604H12.4286C11.2381 38.4604 10.4445 37.6667 10.4445 36.4763V24.5715H14.4127C14.4127 30.1271 18.7778 34.4921 24.3333 34.4921C29.8889 34.4921 34.254 30.1271 34.254 24.5715H38.2222V36.4763C38.2222 37.6667 37.4286 38.4604 36.2381 38.4604Z" fill="white"/>
</svg>
